<svg xmlns="http://www.w3.org/2000/svg" width="165.83586" height="65.22773" viewBox="0 0 165.83586 65.22773">
  <g id="a9623825-5c7f-44db-9e77-c3fed77f9c23" data-name="Layer 2">
    <g id="b8988fc7-8ae2-4427-8071-200a48a9cb1f" data-name="Layer 1">
      <g>
        <g>
          <path d="M5.1404,31.23981A4.80971,4.80971,0,0,0,.31324,35.89964C.08367,40.66405,0,45.909,0,51.00759a34.93971,34.93971,0,0,0,10.63613.89891,59.59289,59.59289,0,0,0,11.472-2.40338c.79407-.22957,1.60906-.43874,2.40313-.64739a15.4616,15.4616,0,0,0,.77315-4.93174C25.51426,32.93253,17.48991,31.23981,5.1404,31.23981Zm5.20315,15.77678.10458-5.43272C17.30217,41.47878,17.26033,47.05843,10.34355,47.01659Z" fill="#fff"/>
          <path d="M10.30171,57.026l.04184,2.988c0,6.39438-10.09306,6.20613-10.21831.10458C.08367,58.21721.04183,56.23166.02092,54.2257c.87748.20917,1.75521.35507,2.65386.48057a38.83732,38.83732,0,0,0,12.91375-.33415c2.257-.43874,4.49249-1.04482,6.70762-1.65089C19.64228,55.68885,15.4212,57.026,10.30171,57.026Z" fill="#44d2f2"/>
          <path d="M37.29978,36.12972c-.06275,3.615-.08367,7.12544-.12525,10.49-.878.04183-1.75547.10458-2.63295.20865a64.03633,64.03633,0,0,0-7.68993,1.44172c.02066-3.94917.12524-8.06567.27166-12.37042C27.26947,29.75626,37.40411,29.79809,37.29978,36.12972Z" fill="#fff"/>
          <path d="M37.1327,49.796c0,3.55226-.02092,6.9377-.02092,10.17621,0,6.33163-10.07214,6.14338-10.17672.10459-.06275-2.75845-.10433-5.621-.08341-8.58859.12524-.04184.27166-.06224.39716-.10408A53.73775,53.73775,0,0,1,37.1327,49.796Z" fill="#44d2f2"/>
          <path d="M54.163,31.57448a73.83913,73.83913,0,0,0-9.63315-.33467,4.79572,4.79572,0,0,0-4.8269,4.65983c-.1255,3.615-.23008,7.20962-.27192,10.69913A44.9699,44.9699,0,0,1,52.40774,48.8139c3.21785,1.02338,6.436,2.006,9.65406,2.88343a12.80312,12.80312,0,0,0,2.75845-8.233C64.67383,36.88221,60.78716,32.51471,54.163,31.57448Zm-4.55524,15.108.04183-5.3914C56.46174,41.20737,56.37808,46.74468,49.60771,46.68244Z" fill="#fff"/>
          <path d="M55.10318,62.68879c-1.92229-3.13444-2.59112-4.74349-3.84459-6.603l-1.69272.1255a33.18287,33.18287,0,0,1,.04184,4.367c-.14642,5.5373-10.03031,5.49547-10.09306-.18774-.10458-3.42728-.14616-6.97954-.10458-10.6573a33.91993,33.91993,0,0,1,8.27509.98206c4.86874,1.23306,9.5704,2.92527,14.37664,4.26292l2.006,3.2176C67.39045,63.629,58.11238,67.28587,55.10318,62.68879Z" fill="#44d2f2"/>
          <path d="M79.07139,30.9684c-8.58834.16734-11.70186,10.32264-12.47526,21.85741A78.2277,78.2277,0,0,0,74.307,54.2257a72.704,72.704,0,0,0,18.32606.23008C91.98539,41.39562,88.70453,30.7174,79.07139,30.9684Zm-1.8598,19.76779c.27166-2.633,1.0239-6.248,2.34037-8.0871,1.31648,1.609,2.11054,5.34957,2.38221,8.12893Z" fill="#fff"/>
          <path d="M92.7792,60.45275c-.08366,6.33163-10.32263,6.37346-10.32263.08366l-5.83014-.04183c-.31324,6.248-10.17647,5.91381-10.25988-.29232,0-1.379.02092-2.77937.06275-4.15834q.28161.06274.564.1255A82.47275,82.47275,0,0,0,91.4839,57.73664c.41782-.04183.83565-.08367,1.25347-.14642C92.7792,58.53045,92.7792,59.4916,92.7792,60.45275Z" fill="#44d2f2"/>
          <path d="M111.66951,41.89711h-2.4447c-.04184,2.79977-.08367,5.55822-.08367,8.31667-3.44793,1.1494-6.87495,2.29879-10.4063,3.11352,0-3.76143.08367-7.50194.14616-11.36744H96.20648c-6.33163.04132-6.26888-10.57363,0-10.84555,5.11948-.18774,10.2808-.18774,15.40028-.06224C117.81289,31.23981,118.14755,41.89711,111.66951,41.89711Z" fill="#fff"/>
          <path d="M109.12022,53.51555c-.02091,2.11-.02091,4.17926-.04183,6.26888,0,6.39387-10.23922,6.28929-10.32263.14591-.02092-1.14889-.02092-2.27737-.02092-3.40585a95.1525,95.1525,0,0,0,9.17324-2.59111C108.30524,53.80788,108.72332,53.66146,109.12022,53.51555Z" fill="#44d2f2"/>
          <path d="M128.17761,40.78955v1.85954c.87773,0,1.77613-.04183,2.67452-.04183a4.62934,4.62934,0,0,1,4.70166,5.18223,45.61625,45.61625,0,0,0-10.11346-.96115,41.13417,41.13417,0,0,0-7.52286.91932c0-4.01192.06275-8.02384.25074-12.03576a4.79136,4.79136,0,0,1,4.7435-4.65983c4.22108-.1255,8.31667-.1255,12.43343,0,6.20613.10407,6.28979,9.487.10433,9.73748C132.7331,40.87321,130.518,40.83138,128.17761,40.78955Z" fill="#fff"/>
          <path d="M135.72113,64.42334c-4.30476.18774-8.44217.18774-12.80942.10459a4.85024,4.85024,0,0,1-4.70166-4.70166c-.10433-2.98854-.188-5.95564-.22983-8.92275a30.76608,30.76608,0,0,1,3.92851-.68974,40.76379,40.76379,0,0,1,12.45409.54332,4.17583,4.17583,0,0,1-3.38519,1.42081c-.91931,0-1.92229.04183-2.75845.04183v2.40287c2.44521-.08367,4.7435-.14591,7.41828-.08367C142.01092,54.66444,141.82267,64.23509,135.72113,64.42334Z" fill="#44d2f2"/>
          <path d="M165.05956,56.08575c-.02091.14591-.04183.27141-.06275.39691a63.472,63.472,0,0,1-11.096-2.96711,15.50652,15.50652,0,0,0-2.8416-1.65088c-5.43323-2.5498-8.35851-5.03633-8.296-10.88687.04183-10.42773,13.60349-13.20658,20.18586-7.60653,4.91057,4.15834-1.56722,11.117-6.39438,7.20911-.98206-.79381-2.5702-1.358-3.2806-.08316-.7104,1.27439,1.31647,2.15187,3.803,3.615C162.51028,47.30892,165.70721,50.25561,165.05956,56.08575Z" fill="#fff"/>
          <path d="M164.05658,59.4916c-3.239,6.33163-13.03925,7.12595-19.09947,3.67776-5.0149-2.90435-3.40584-8.19117-.06249-9.5079,6.03905,2.06871,11.9526,4.53433,18.24239,5.68423C163.45051,59.40793,163.74283,59.44977,164.05658,59.4916Z" fill="#44d2f2"/>
        </g>
        <g>
          <path d="M16.73793,2.4447A24.11524,24.11524,0,0,0,7.98226,1.0239C6.97928.98206,5.91355.98206,4.8269,1.003A4.06027,4.06027,0,0,0,.81473,4.97358C.79381,5.80922.752,6.6867.752,7.56418c-.14591,5.83014,0,12.2036.20917,17.76183.188,5.12,8.67174,5.16182,8.58833-.20866L9.44515,22.589c7.33461-.10458,12.49593-3.44819,12.45409-11.1797a13.05465,13.05465,0,0,0-.31349-3.13444A7.76369,7.76369,0,0,0,16.73793,2.4447ZM9.3824,14.18864,9.40332,9.612C15.14979,9.46607,15.17071,14.14681,9.3824,14.18864Z" fill="#fff"/>
          <path d="M37.34136,20.39477c-2.02688-.04183-3.991,0-5.809,0,.12524-3.59409.25074-7.54326.29258-11.53477V8.56716c.02091-1.14888.02091-2.34011.02091-3.51043V4.88991a3.645,3.645,0,0,0-2.96736-3.63644,5.62113,5.62113,0,0,0-2.36128-.06224,3.79354,3.79354,0,0,0-3.34336,3.51043c-.04183,1.12848-.08366,2.27788-.12524,3.42676-.16733,5.55873-.18825,11.26337-.23008,16.75885a4.07556,4.07556,0,0,0,4.03309,4.09558c3.48976.1255,6.97928.08367,10.48971,0C42.54451,28.85786,42.54451,20.62435,37.34136,20.39477Z" fill="#fff"/>
          <path d="M52.40774.79432a5.45786,5.45786,0,0,0-.83591.04184C43.65207,1.19123,40.74771,7.105,40.78955,15.00337c.10432,7.9616,3.21785,14.41873,11.57635,14.356,8.08685,0,11.63911-6.20613,11.63911-14.66922.04183-4.38842-.91931-8.1075-3.17627-10.59454C58.99011,2.006,56.21074.79432,52.40774.79432Zm-.04184,19.454c-2.006.08366-2.94644-2.69519-2.90461-5.45364,0-2.71662,1.0239-5.34957,2.94645-5.3914,1.92254.06275,2.96736,2.67478,3.03011,5.32865C55.52126,17.44807,54.5392,20.24836,52.3659,20.24836Z" fill="#fff"/>
          <path d="M80.91027,3.44819A7.9034,7.9034,0,0,0,79.74,2.80028,20.07539,20.07539,0,0,0,71.507.85656a1.414,1.414,0,0,0-.29258-.0204C70.692.81473,70.16956.79432,69.62624.79432a4.172,4.172,0,0,0-4.40908,3.88642,100.63613,100.63613,0,0,0,.43874,20.47844c.31349,2.23605,1.44172,3.82367,3.82417,4.09559,9.21507.94023,16.82134-4.03284,16.82134-14.3973C86.30141,9.27782,84.337,5.60006,80.91027,3.44819ZM73.8889,19.68412c-.04158-3.84459-.18774-6.83261-.27141-9.50791,2.31946.35559,4.22109,1.42132,4.22109,4.68126C77.83858,17.82457,76.79377,19.16171,73.8889,19.68412Z" fill="#fff"/>
          <path d="M99.77966,1.44172a14.90936,14.90936,0,0,0-2.006-.52241A27.54619,27.54619,0,0,0,92.31955.31375a4.17338,4.17338,0,0,0-4.09559,2.361V2.6957a5.34025,5.34025,0,0,0-.43874,1.4208,106.09937,106.09937,0,0,0,0,20.47844c.27141,2.25645,1.379,3.86551,3.78209,4.17926,9.17349,1.14939,16.88409-3.65685,17.09326-14.02132a16.04442,16.04442,0,0,0-1.04481-6.56171C106.23653,4.78533,103.49925,2.612,99.77966,1.44172ZM96.14373,19.28721c.04183-3.82367-.02092-6.8122-.06275-9.5079,2.31945.41833,4.20017,1.52538,4.1165,4.78532C100.13473,17.53174,99.08992,18.84847,96.14373,19.28721Z" fill="#fff"/>
          <path d="M110.22779,4.82716c-.02092,1.06573-.06275,2.11054-.08367,3.13444h0v.02092l-.06275,3.57317h0c-.08367,4.82716-.08367,9.34057.02092,13.58258.08366,5.07764,8.52584,5.245,8.52584-.08367,0-6.08063.06249-12.74693.18774-20.03919C118.89953-.31375,110.374-.35507,110.22779,4.82716Z" fill="#fff"/>
          <path d="M142.13872,3.67164l.00791-.00867a3.66666,3.66666,0,0,0-1.59171-2.0881,4.86424,4.86424,0,0,0-5.17917.076,3.45106,3.45106,0,0,0-1.4203,1.908l.00664.00766a3.70772,3.70772,0,0,0-.18417,1.09328c-.02092,2.17329.376,4.493.22957,6.478-1.0239-1.37948-2.08963-3.00945-3.21785-4.80624-.68949-1.06573-1.33739-2.19421-2.06871-3.36452-.02092-.04133-.06275-.10459-.08367-.14642C126.79838-.58516,120.843.73106,120.67592,4.82716c-.1255,6.66578-.18825,13.51982-.16733,20.31111.08366,5.07764,8.484,5.245,8.484-.08367,0-2.21513-.41782-4.618-.31349-6.54029,1.73429,2.27737,3.46885,5.39089,5.57939,8.54625,2.34012,3.32269,7.79427,1.81822,7.89885-2.17329.16682-6.14338.20866-13.64482.16682-20.01828A3.69469,3.69469,0,0,0,142.13872,3.67164Z" fill="#fff"/>
          <path d="M157.892,11.51386c-4.76415-.8984-5.49573,7.10453-.35533,7.37644l-.22957,1.58814c-8.02435,2.4447-4.5555-17.32308,1.25347-10.88687,3.78235,3.8655,9.3824-1.86005,6.01839-5.76739a9.96736,9.96736,0,0,0-3.40636-2.63295A10.956,10.956,0,0,0,157.39054.08367,8.986,8.986,0,0,0,156.095,0a10.77306,10.77306,0,0,0-5.80922,1.6718l-.00357.00255-.00663.00358c-.10714.06632-.19744.152-.302.22141a11.02007,11.02007,0,0,0-1.66415,1.37284c-.20866.20662-.43058.39946-.625.62087l.00357.00255c-5.96865,6.64691-5.27686,19.48873,2.86941,23.83378,5.34931,2.96711,14.00065.48058,14.52306-4.22108.376-2.5702.52241-4.76441.73132-6.58263C166.14621,12.26584,162.96994,12.57959,157.892,11.51386Z" fill="#fff"/>
        </g>
      </g>
    </g>
  </g>
</svg>
